P3
# test 2
4 4
15
0 0 0 0 0 0 0 0 0 8 0 8
0 0 0 0 8 0 0 0 0 0 0 0
0 0 0 0 0 0 0 8 0 0 0 0
8 0 8 0 0 0 0 0 0 0 0 0
