P3
# test 2
4 4
15
12 12 12 0 0 0 0 0 0 4 4 4
0 0 0 11 11 11 0 0 0 0 0 0
0 0 0 0 0 0 11 11 11 0 0 0
4 4 4 0 0 0 0 0 0 0 0 0
