P3
# test 2
3 3
15
0 0 0 0 0 0 15 0 15 0 15 7 0 0 0 0 0 0 0 0 0 0 15 7 0 0 0 
