P3
# test 2
4 4
15
7 5 4 0 0 0 0 0 0 8 0 8 0 0 0 0 8 0 0 0 0 0 0 0 0 0 0 0 0 0 0 8 0 0 0 0 8 0 8 0 0 0 0 0 0 0 0 0 
