P3
# test 2
4 4
15
15 0 15 0 0 0 0 0 0 0 0 0
0 0 0 0 0 0 0 15 7 0 0 0
0 0 0 0 15 7 0 0 0 0 0 0
0 0 0 0 0 0 0 0 0 15 0 15
