P3
# test 2
4 4
15
14 11 12 0 0 0 0 0 0 15 15 0 0 0 0 0 7 15 0 0 0 0 0 0 0 0 0 0 0 0 0 7 15 0 0 0 15 15 0 0 0 0 0 0 0 0 0 0 
